<?xml version="1.0" encoding="utf-8"?>
<!-- Generator: Adobe Illustrator 27.8.1, SVG Export Plug-In . SVG Version: 6.00 Build 0)  -->
<svg version="1.1" id="Layer_1" xmlns="http://www.w3.org/2000/svg" xmlns:xlink="http://www.w3.org/1999/xlink" x="0px" y="0px"
	 viewBox="0 0 3365.3 638" style="enable-background:new 0 0 3365.3 638;" xml:space="preserve">
<g>
	<g>
		<path d="M267.9,491.6c-50.9-23.2-101.1-63.8-101.1-124.3c0-148.1,255-229.9,332.2-271.1c0,0,44.4-48.3,56-48.3
			c2.6,0,7.7,7.7,7.7,10.3c0,2.6-1.3,3.9-6.4,6.4c-10.9,6.5-31.5,21.9-47,38c-74.1,80.5-92.1,282-193.8,398.5
			c13.5,3.2,24.5,3.2,39.9,3.2c3.8,0,8.4,6.4,8.4,7.7c0,1.3-2.6,2.6-7.7,2.6c-11.6,0-27.7-2.6-45.7-7.7
			c-45.1,49.6-105.6,83-193.8,83c-48.3,0-87.6-14.8-97.9-20c-2.6-1.3-4.5-2.6-4.5-3.9s1.3-3.2,3.2-3.2c1.9,0,32.8,14.8,84.3,14.8
			C170,577.9,223.4,542.4,267.9,491.6 M274.9,483.2c92.7-113.3,145.5-297.5,210.5-371.5c-63.8,31.6-282,109.5-282,259.5
			C203.5,423.3,238.9,461.3,274.9,483.2"/>
		<path d="M415.8,420.7c15.4-18,29.6-40.5,39.3-58.6c-3.2-8.4-6.4-15.4-6.4-26.4c0-24.5,32.8-50.9,44.4-50.9
			c9,0,23.2,14.8,23.2,23.2c0,9.7-41.8,26.4-41.8,50.2c0,27.7,17.4,36.1,20,65.6c22.5-3.2,45.1-12.8,64.4-32.2c0,0,2.6-2.6,3.9-2.6
			c1.3,0,2.6,1.9,2.6,2.6c0,1.3-4.5,5.8-6.4,7.7c-18.7,18.7-41.2,27.7-63.7,30.9c0,26.4-29,54.1-59.9,54.1
			c-17.4,0-34.1-14.2-45.1-29c-7.1,5.8-16.7,11.6-27,11.6c-4.5,0-9-0.6-9-2.6c0-1.9,5.8-11.6,7.7-11.6c1.3,0,3.2,0.6,7.1,0.6
			c5.1,0,11-1.9,16.7-5.2c-5.8-9-9-18-9-23.8c0-4.5,2.6-9,9-9C392.6,415.6,402.9,418.2,415.8,420.7 M394.6,441.3
			c5.8-4.5,11-9.7,16.7-15.4c-8.4-1.9-15.4-3.2-19.3-3.2c-3.2,0-4.5,1.3-4.5,3.9C387.5,429.8,390.1,435.6,394.6,441.3 M458.3,432.3
			c-14.8-0.6-28.3-3.2-39.3-5.2c-5.8,7.1-11.6,13.5-18.6,20c5.8,5.1,12.8,9,21.2,9C436.4,456.2,450.6,449.1,458.3,432.3 M423.5,422
			c11,1.9,23.2,3.2,36.7,3.9c1.9-6.4,3.2-13.5,3.2-22.5c0-16.1-2.6-26.4-5.8-35.4C446.1,389.8,435.8,406.6,423.5,422"/>
		<path d="M680.4,466.5c-20.6,0-38.6-14.1-38.6-38.7c0-12.2,1.9-23.2,1.9-23.2c-32.2,31.5-77.3,77.9-92.1,77.9
			c-14.8,0-37.4-17.4-37.4-37.3c0-51.5,87.6-140.4,143-140.4c25.1,0,49.6,22.5,49.6,36.7c0,10.3-3.2,16.7-5.1,16.7
			c-1.9,0-5.8-3.9-5.8-6.4c0-2.6,3.2-4.5,3.2-12.2c0-4.5-7.1-10.3-11.6-10.3c-60.5,0-144.2,90.2-144.2,134.6c0,5.1,2.6,8.4,8.4,8.4
			c12.2,0,58.6-44.4,89.5-75.3c19.3-19.3,33.5-32.2,39.3-32.2s23.2,16.7,23.2,27c0,7.7-28.3,29-28.3,48.9c0,8.4,6.4,12.2,14.1,12.2
			c31.6,0,92.7-61.2,92.7-61.2c1.3-1.3,2.6-2.6,3.9-2.6c1.9,0,2.6,1.9,2.6,2.6c0,1.3-4.5,5.8-6.4,7.7
			C782.1,399.5,716.4,466.5,680.4,466.5"/>
		<path d="M992.6,389.2c1.9,0,2.6,1.9,2.6,2.6c0,1.3-4.5,5.8-6.4,7.7C962.3,424,937.2,433,902.5,433h-5.8
			c-21.3,20.6-47,35.4-65.7,35.4c-18,0-36.1-18-36.1-32.2c0-11.5,10.3-18,23.2-18c8.4,0,25.8,2.6,43.1,5.2
			c24.5-21.9,48.3-56,48.3-81.8c0-7.7-3.9-11.5-9.7-11.5c-18.7,0-114,55.3-130,153.2c-0.6,3.2-2.6,3.8-4.5,3.8
			c-7.1,0-21.3-7.1-21.3-34.1c0-133.2,136.5-330.9,195.1-330.9c17.4,0,32.2,13.5,32.2,30.3c0,58.6-146.1,200.9-182.8,236.9
			c0,0-5.2,18.7-7.1,32.2c29.6-51.5,92.7-103,126.8-103c13.5,0,30.9,17.4,30.9,34.1c0,24.5-15.4,52.1-36.1,74
			c34.1,0,59.9-9,85.6-34.8C990,390.5,991.3,389.2,992.6,389.2 M960.4,157.4c0-6.5-5.2-10.3-9.7-10.3c-45.7,0-132.6,137.8-159,228.6
			C821.3,346.1,960.4,207.6,960.4,157.4 M807.2,434.3c0,4.5,7.7,10.3,14.2,10.3c9,0,21.3-5.8,33.5-15.4c-14.2-1.9-26.4-3.9-33.5-3.9
			C811,425.3,807.2,429.1,807.2,434.3"/>
		<path d="M1123.9,389.2c1.9,0,2.6,1.9,2.6,2.6c0,1.3-4.5,5.8-6.4,7.7c0,0-63.7,69.5-113.3,69.5c-32.8,0-50.2-20.6-50.2-54.1
			c0-58,57.9-118.5,86.3-118.5c17.4,0,28.3,21.9,28.3,29.6c0,18-39.3,52.1-74.7,74c-1.3,3.9-1.9,15.4-1.9,20
			c0,20,9.7,36.7,28.3,36.7c34.1,0,97.2-65,97.2-65S1122.6,389.2,1123.9,389.2 M1057.6,326.8c0-5.1-1.9-7.1-5.1-7.1
			c-11,0-36.1,25.1-55.4,72.1C1026,372.4,1057.6,341.6,1057.6,326.8"/>
		<path d="M1236.5,396.9c31.5-112.7,124.2-266.5,169.3-266.5c18.7,0,33.5,16.7,33.5,35.4c0,43.8-103.7,159.7-166.1,218.3
			c0,0-12.2,33.5-12.2,59.9c0,15.4,7.1,20.6,16.1,20.6c25.8,0,105.6-72.7,105.6-72.7c1.3-1.3,2.6-2.6,3.9-2.6c1.9,0,2.6,1.9,2.6,2.6
			c0,1.3-4.5,5.8-6.4,7.7c0,0-83.7,79.2-119.1,79.2c-17.4,0-32.2-12.9-32.2-39.3c0-6.4,2.6-25.1,4.5-33.5
			c-27,23.2-79.8,79.2-104.3,79.2c-17.4,0-32.2-12.9-32.2-39.3c0-122.3,120.4-298.7,169.3-298.7c18.7,0,33.5,16.7,33.5,35.4
			c0,43.8-95.3,142.9-157.7,201.5c0,0-15.4,39.9-15.4,66.3c0,15.4,7.1,20.6,16.1,20.6C1162.5,471,1211.4,418.8,1236.5,396.9
			 M1290.6,181.9c0-5.8-3.9-8.4-8.4-8.4c-36.1,0-115.9,132.6-132.6,195.7C1199.8,319.7,1290.6,221.1,1290.6,181.9 M1427.7,165.2
			c0-5.8-3.9-8.4-8.4-8.4c-36.1,0-124.3,149.4-141,212.5C1328.6,319.7,1427.7,204.4,1427.7,165.2"/>
		<path d="M1535.2,432.3c1.3,0,2.6,1.3,2.6,2.6c0,1.9-3.2,4.5-7.1,7.7c-14.1,11.6-29.6,23.8-41.8,23.8c-20.6,0-36.1-14.2-36.1-38.7
			c0-12.2,1.9-23.2,1.9-23.2c-32.2,31.5-77.3,77.9-92,77.9c-14.8,0-37.4-17.4-37.4-37.3c0-51.5,87.6-140.4,142.9-140.4
			c25.1,0,49.6,22.5,49.6,36.7c0,10.3-3.2,16.7-5.1,16.7c-1.9,0-5.8-3.9-5.8-6.5c0-2.5,3.2-4.5,3.2-12.2c0-4.5-7.1-10.3-11.6-10.3
			c-60.5,0-144.2,90.2-144.2,134.6c0,5.1,2.6,8.4,8.4,8.4c12.2,0,58.6-44.4,89.5-75.4c19.3-19.3,33.5-32.2,39.3-32.2
			c5.8,0,23.2,16.7,23.2,27c0,7.7-28.3,28.9-28.3,48.9c0,8.4,4.5,13.5,12.2,13.5c8.4,0,18-7.8,28.3-16.1
			C1530.7,434.9,1533.9,432.3,1535.2,432.3"/>
	</g>
	<g>
		<path d="M1753.6,423.6c68.9,0,245.3-145.5,274.9-145.5c14.8,0,43.1,18.7,43.1,37.4c0,15.4-18,49.6-30.9,71.5
			c11.6-2.6,21.9-4.5,29-4.5c10.3,0,24.5,12.3,24.5,14.2c0,1.3-0.6,2.6-1.9,2.6c-1.9,0-8.4-1.3-18-1.3c-12.2,0-24.5,1.9-42.5,6.4
			c-53.4,94.6-171.3,220.9-231.2,220.9c-22.5,0-43.1-23.2-43.1-42.5c0-70.8,144.2-150,240.2-186.7c23.2-36.1,45.7-76,45.7-97.2
			c0-5.1-3.2-9-8.4-9c-32.8,0-205.4,142.3-284,142.3c-40.5,0-77.9-26.4-77.9-70.2c0-36,16.1-74.7,43.8-113.3
			c-59.2-9-85.6-41.2-85.6-48.9c0-1.3,0.6-2.6,1.9-2.6c1.3,0,1.9,0.7,3.9,2.6c6.4,6.4,27,28.3,90.2,35.4
			c90.1-115.3,276.2-222.1,409.5-222.1c42.5,0,64.4,20,64.4,45.7c0,79.8-274.9,186.7-436.5,192.5c-39.9,43.8-65,86.9-65,121.7
			C1699.5,404.3,1716.3,423.6,1753.6,423.6 M1783.9,603.3c36.7,0,143-104.3,203.5-190.6c-93.3,33.5-221.5,107.5-221.5,171.3
			C1765.9,596.8,1773.6,603.3,1783.9,603.3 M1778.7,235.6C1916.5,227.3,2185,135.2,2185,65c0-15.4-14.8-27-36.1-27
			C2044,38,1876.6,135.9,1778.7,235.6"/>
		<path d="M2176.5,412.1c-18.7,14.8-36.1,23.2-44.4,23.2c-15.5,0-43.1-15.4-43.1-45.1c0-12.8,2.6-24.5,7.1-35.4
			c0-1.3-0.6-2.6-0.6-4.5c0-54.7,59.2-94,93.4-94c28.9,0,50.2,18.7,50.2,45.7c0,42.5-27.7,79.2-55.4,103.6
			c38.6-2.6,72.1-29,92.1-48.9c0,0,1.9-2.6,3.8-2.6c1.9,0,3.2,1.9,3.2,2.6c0,1.3-5.2,5.8-7.1,7.7
			C2256.3,381.8,2226.1,410.1,2176.5,412.1 M2172,279.4c7.7,0,20.6,18,20.6,24.5c0,3.8-4.5,6.4-8.4,8.4
			c-23.8,14.2-56.7,42.5-70.8,70.8c11,14.1,30.3,22.5,53.4,23.8c27-23.8,53.4-65,53.4-106.9c0-21.2-12.3-34.8-37.4-34.8
			c-25.1,0-70.8,29.6-78.5,72.1c10.3-16.7,24.5-29.6,38-41.2C2152.7,287.2,2163.6,279.4,2172,279.4 M2107.6,406.2
			c0,11.6,7.1,21.3,18,21.3c9.6,0,22.5-5.8,35.4-15.4c-21.3-1.9-39.3-9-50.9-21.3C2108.2,395.9,2107.6,401.1,2107.6,406.2"/>
		<path d="M2325.2,303.9c0,11.6-17.4,36.1-31.6,60.5c23.8-18.7,92.7-64.4,117.2-64.4c10.3,0,18,18.7,18,27c0,7.1-49,55.4-49,89.5
			c0,5.8,3.9,8.4,9,8.4c39.3,0,108.2-68.2,108.2-68.2s2.6-2.6,3.9-2.6c1.9,0,3.2,1.9,3.2,2.6c0,1.3-7.1,7.7-7.1,7.7
			s-74,73.4-108.2,73.4c-16.1,0-36.7-20-36.7-41.2c0-28.3,30.3-68.9,30.3-73.4c0-0.6-0.6-1.3-1.9-1.3c-7.1,0-56.7,24.5-92.1,57.3
			c-41.2,38-46.4,69.5-52.1,69.5c-6.4,0-17.4-16.1-17.4-29.6c0-12.9,65.7-91.4,74.7-141c0-5.2,3.2-5.8,6.5-5.8
			C2306.5,272.3,2325.2,287.2,2325.2,303.9"/>
		<path d="M2514.4,450c2.6,3.2,5.1,7.1,5.1,10.3c0,5.8-14.1,24.5-16.1,26.4c2.5-0.6,15.4-5.1,23.2-5.1c9,0,22.6,16.1,22.6,34.1
			c0,17.4-25.8,36.7-47.7,36.7c-21.9,0-31.6-15.5-31.6-19.3c0-1.3,0.6-1.9,1.9-1.9s5.8,5.1,15.4,5.1c27,0,44.4-29,44.4-42.5
			c0-3.8-1.9-5.8-5.2-5.8c-15.4,0-29,16.7-34.1,16.7c-5.2,0-10.3-11-10.3-16.7c0-5.8,18.7-29,23.2-37.4
			c-22.5-1.2-45.7-16.7-45.7-45.7c0-64.4,71.5-135.9,111.4-135.9c16.1,0,32.2,11.6,32.2,29c0,7.7-5.1,20-16.7,32.2
			c-0.6,0.6-6.4,1.9-9,1.9c-0.6,0-1.3-0.6-1.3-1.3c0-0.6,0.6-1.9,1.9-3.2c9.7-9.7,16.8-21.9,16.8-29c0-3.2-1.9-6.4-6.5-6.4
			c-34.1,0-96.6,63.1-96.6,117.8c0,16.1,7.7,28.3,24.5,28.3c47.7,0,133.3-81.7,133.3-81.7s2.6-2.6,3.9-2.6c1.3,0,2.6,1.9,2.6,2.6
			c0,1.3-4.5,5.8-6.4,7.7C2649.6,364.4,2567.8,443.6,2514.4,450"/>
		<path d="M2771.2,431.4c-20.6,0-38.6-14.1-38.6-38.7c0-12.2,1.9-23.2,1.9-23.2c-32.2,31.5-77.2,77.9-92.1,77.9
			c-14.8,0-37.4-17.4-37.4-37.3c0-51.5,87.6-140.4,143-140.4c25.1,0,49.6,22.5,49.6,36.7c0,10.3-3.2,16.7-5.2,16.7
			c-1.9,0-5.8-3.9-5.8-6.4c0-2.6,3.2-4.5,3.2-12.2c0-4.5-7.1-10.3-11.6-10.3c-60.5,0-144.2,90.2-144.2,134.6c0,5.1,2.6,8.4,8.4,8.4
			c12.2,0,58.6-44.4,89.5-75.3c19.3-19.3,33.5-32.2,39.3-32.2s23.2,16.7,23.2,27c0,7.7-28.3,29-28.3,48.9c0,8.4,6.4,12.2,14.1,12.2
			c31.6,0,92.7-61.2,92.7-61.2c1.3-1.3,2.6-2.6,3.9-2.6c1.9,0,2.6,1.9,2.6,2.6c0,1.3-4.5,5.8-6.4,7.7
			C2873,364.4,2807.3,431.4,2771.2,431.4"/>
		<path d="M2999.7,356.7c1.3-1.3,2.6-2.6,3.9-2.6c1.9,0,2.6,1.9,2.6,2.6c0,1.3-4.5,5.8-6.4,7.7c0,0-83.7,79.2-119.1,79.2
			c-17.4,0-32.2-12.9-32.2-39.3c0-122.3,125.6-309.1,174.5-309.1c18.7,0,33.5,16.7,33.5,35.4c0,43.8-103.7,159.7-166.1,218.3
			c0,0-12.2,33.5-12.2,59.9c0,15.4,7.1,20.6,16.1,20.6C2919.9,429.4,2999.7,356.7,2999.7,356.7 M3044.8,130.1c0-5.8-3.9-8.4-8.4-8.4
			c-36.1,0-124.3,149.4-141,212.5C2945.6,284.6,3044.8,169.3,3044.8,130.1"/>
		<path d="M3016.4,276.2c9.7,0,26.4,13.5,26.4,30.9c0,25.8-47,94-47,119.7c0,2,1.3,3.2,3.2,3.2c19.3,0,118.5-85.6,118.5-160.3
			c0-11-3.9-16.7-3.9-21.3c0-1.9,0.6-2.6,2.6-2.6c4.5,0,20,16.1,20,34.8c0,74-124.3,161.6-143.6,161.6c-8.4,0-27.7-14.8-27.7-27
			c0-30.9,46.4-107.5,46.4-134.6C3011.3,277.5,3012.6,276.2,3016.4,276.2"/>
		<path d="M3277.2,354.1c1.9,0,2.6,1.9,2.6,2.6c0,1.3-4.5,5.8-6.4,7.7c0,0-63.7,69.5-113.3,69.5c-32.8,0-50.2-20.6-50.2-54.1
			c0-58,57.9-118.5,86.3-118.5c17.4,0,28.3,21.9,28.3,29.6c0,18-39.3,52.1-74.7,74c-1.3,3.9-1.9,15.4-1.9,20
			c0,20,9.7,36.7,28.3,36.7c34.1,0,97.2-65,97.2-65S3275.9,354.1,3277.2,354.1 M3210.8,291.7c0-5.1-1.9-7.1-5.1-7.1
			c-11,0-36.1,25.1-55.4,72.1C3179.3,337.3,3210.8,306.5,3210.8,291.7"/>
		<path d="M3285.5,332.9c-16.1,17.4-30.3,31.5-30.3,31.5c-1.3,1.3-2.6,2.6-3.2,2.6c-1.3,0-2.6-1.3-2.6-2.6c0-1.9,2.6-4.5,5.8-7.7
			c0,0,11.6-12.3,27.7-29.6c-3.2-8.4-6.4-15.5-6.4-26.4c0-24.5,32.8-50.9,44.4-50.9c9,0,23.2,14.8,23.2,23.2
			c0,9.6-41.8,26.4-41.8,50.2c0,22.5,12.9,32.2,18,53.4c20.6,3.2,30.9,9.7,30.9,12.9c0,2.6-3.9,5.8-6.4,5.8c-1.9,0-9-7.7-23.8-11.6
			c0.6,3.2,1.3,7.1,1.3,11c0,28.3-28.3,54.7-59.2,54.7c-30.9,0-58.6-30.3-58.6-47c0-4.5,3.2-8.4,9.7-11
			c10.3-3.8,48.9-13.5,76.6-15.4c0.6-2.6,0.6-5.1,0.6-7.7C3291.3,352.2,3288.7,341.9,3285.5,332.9 M3215.3,404.3
			c0,7.1,13.5,16.7,34.1,16.7c21.2,0,36.1-19.3,40.6-39.9c-32.9,1.9-60.5,14.1-68.3,16.7C3216.6,399.8,3215.3,401.8,3215.3,404.3"/>
	</g>
</g>
</svg>
