<?xml version="1.0" encoding="utf-8"?>
<!-- Generator: Adobe Illustrator 28.1.0, SVG Export Plug-In . SVG Version: 6.00 Build 0)  -->
<svg version="1.1" id="Layer_1" xmlns="http://www.w3.org/2000/svg" xmlns:xlink="http://www.w3.org/1999/xlink" x="0px" y="0px"
	 viewBox="0 0 376.6 471.3" style="enable-background:new 0 0 376.6 471.3;" xml:space="preserve">
<style type="text/css">
	.st0{fill:#1D1D1D;}
</style>
<g>
	<path class="st0" d="M36.6,3C17.2,3,2.3,16.8,2.3,36.2s14.4,33.2,34.3,33.2c19.3,0,34.3-13.8,34.3-33.2S55.9,3,36.6,3z"/>
	<path class="st0" d="M374.4,222.8v114.4c0,82.4-58.6,131-133.8,131h-97.9c-69.6,0-125-41.7-132.8-113.3c-0.6-5.7-0.9-11.6-0.9-17.7
		V83h55.3v254.2c0,50.3,34.3,78,79.1,78H240c44.8,0,79.1-27.6,79.1-78V224.4c0-56.9-34.8-87.9-80.2-87.9
		c-44.8,0-80.2,32.6-80.2,80.7c0,45.9,31.5,85.1,92.3,85.1h33.7l-16.6,52.5h-21.6c-87.4,0-143.8-60.3-143.8-137.1
		c0-79.6,59.2-134.4,136.6-134.4C316.9,83.5,374.4,136.6,374.4,222.8z"/>
</g>
</svg>
