<?xml version="1.0" encoding="utf-8"?>
<!-- Generator: Adobe Illustrator 28.1.0, SVG Export Plug-In . SVG Version: 6.00 Build 0)  -->
<svg version="1.1" id="Layer_1" xmlns="http://www.w3.org/2000/svg" xmlns:xlink="http://www.w3.org/1999/xlink" x="0px" y="0px"
	 viewBox="0 0 376.65 471.26" style="enable-background:new 0 0 376.65 471.26;" xml:space="preserve">
<g>
	<path d="M36.57,2.99c-19.35,0-34.28,13.82-34.28,33.17s14.38,33.17,34.28,33.17c19.35,0,34.28-13.82,34.28-33.17
		S55.93,2.99,36.57,2.99z"/>
	<path d="M374.35,222.8v114.44c0,82.38-58.61,131.03-133.8,131.03H142.7c-69.64,0-125.04-41.73-132.84-113.34
		c-0.63-5.71-0.95-11.61-0.95-17.69V83h55.29v254.24c0,50.31,34.28,77.95,79.06,77.95H240c44.78,0,79.06-27.65,79.06-77.95V224.45
		c0-56.95-34.83-87.9-80.17-87.9c-44.78,0-80.17,32.62-80.17,80.72c0,45.89,31.52,85.14,92.33,85.14h33.72l-16.58,52.53h-21.56
		c-87.35,0-143.75-60.26-143.75-137.11c0-79.62,59.16-134.35,136.56-134.35C316.85,83.47,374.35,136.55,374.35,222.8z"/>
</g>
</svg>
