<?xml version="1.0" encoding="utf-8"?>
<!-- Generator: Adobe Illustrator 27.8.1, SVG Export Plug-In . SVG Version: 6.00 Build 0)  -->
<svg version="1.1" id="Layer_1" xmlns="http://www.w3.org/2000/svg" xmlns:xlink="http://www.w3.org/1999/xlink" x="0px" y="0px"
	 viewBox="0 0 1920 1080" style="enable-background:new 0 0 1920 1080;" xml:space="preserve">
<style type="text/css">
	.st0{fill:#FFFFFF;}
</style>
<g>
	<path class="st0" d="M453.2,460.3c-50.9-23.2-101.1-63.8-101.1-124.3c0-148.1,255-229.9,332.2-271.1c0,0,44.4-48.3,56-48.3
		c2.6,0,7.7,7.7,7.7,10.3s-1.3,3.9-6.4,6.4c-10.9,6.5-31.5,21.9-47,38c-74.1,80.5-92.1,282-193.8,398.5c13.5,3.2,24.5,3.2,39.9,3.2
		c3.8,0,8.4,6.4,8.4,7.7c0,1.3-2.6,2.6-7.7,2.6c-11.6,0-27.7-2.6-45.7-7.7c-45.1,49.6-105.6,83-193.8,83c-48.3,0-87.6-14.8-97.9-20
		c-2.6-1.3-4.5-2.6-4.5-3.9s1.3-3.2,3.2-3.2s32.8,14.8,84.3,14.8C355.3,546.6,408.8,511.1,453.2,460.3 M460.3,451.9
		C553,338.6,605.8,154.5,670.8,80.4c-63.8,31.6-282,109.5-282,259.5C388.8,392,424.2,430,460.3,451.9"/>
	<path class="st0" d="M601.1,389.5c15.4-18,29.6-40.5,39.3-58.6c-3.2-8.4-6.4-15.4-6.4-26.4c0-24.5,32.8-50.9,44.4-50.9
		c9,0,23.2,14.8,23.2,23.2c0,9.7-41.8,26.4-41.8,50.2c0,27.7,17.4,36.1,20,65.6c22.5-3.2,45.1-12.8,64.4-32.2c0,0,2.6-2.6,3.9-2.6
		c1.3,0,2.6,1.9,2.6,2.6c0,1.3-4.5,5.8-6.4,7.7c-18.7,18.7-41.2,27.7-63.7,30.9c0,26.4-29,54.1-59.9,54.1c-17.4,0-34.1-14.2-45.1-29
		c-7.1,5.8-16.7,11.6-27,11.6c-4.5,0-9-0.6-9-2.6c0-1.9,5.8-11.6,7.7-11.6c1.3,0,3.2,0.6,7.1,0.6c5.1,0,11-1.9,16.7-5.2
		c-5.8-9-9-18-9-23.8c0-4.5,2.6-9,9-9C577.9,384.3,588.2,386.9,601.1,389.5 M579.9,410.1c5.8-4.5,11-9.7,16.7-15.4
		c-8.4-1.9-15.4-3.2-19.3-3.2c-3.2,0-4.5,1.3-4.5,3.9C572.8,398.5,575.4,404.3,579.9,410.1 M643.6,401.1
		c-14.8-0.6-28.3-3.2-39.3-5.2c-5.8,7.1-11.6,13.5-18.6,20c5.8,5.1,12.8,9,21.2,9C621.7,424.9,635.9,417.8,643.6,401.1 M608.8,390.8
		c11,1.9,23.2,3.2,36.7,3.9c1.9-6.4,3.2-13.5,3.2-22.5c0-16.1-2.6-26.4-5.8-35.4C631.4,358.6,621.1,375.3,608.8,390.8"/>
	<path class="st0" d="M865.7,435.2c-20.6,0-38.6-14.1-38.6-38.7c0-12.2,1.9-23.2,1.9-23.2c-32.2,31.5-77.2,77.9-92.1,77.9
		c-14.8,0-37.4-17.4-37.4-37.3c0-51.5,87.6-140.4,143-140.4c25.1,0,49.6,22.5,49.6,36.7c0,10.3-3.2,16.7-5.1,16.7
		c-1.9,0-5.8-3.9-5.8-6.4c0-2.6,3.2-4.5,3.2-12.2c0-4.5-7.1-10.3-11.6-10.3c-60.5,0-144.2,90.2-144.2,134.6c0,5.1,2.6,8.4,8.4,8.4
		c12.2,0,58.6-44.4,89.5-75.3c19.3-19.3,33.5-32.2,39.3-32.2s23.2,16.7,23.2,27c0,7.7-28.3,29-28.3,48.9c0,8.4,6.4,12.2,14.1,12.2
		c31.6,0,92.7-61.2,92.7-61.2c1.3-1.3,2.6-2.6,3.9-2.6c1.9,0,2.6,1.9,2.6,2.6c0,1.3-4.5,5.8-6.4,7.7
		C967.4,368.2,901.8,435.2,865.7,435.2"/>
	<path class="st0" d="M1177.9,357.9c1.9,0,2.6,1.9,2.6,2.6c0,1.3-4.5,5.8-6.4,7.7c-26.4,24.5-51.5,33.5-86.3,33.5h-5.8
		c-21.3,20.6-47,35.4-65.7,35.4c-18,0-36.1-18-36.1-32.2c0-11.5,10.3-18,23.2-18c8.4,0,25.8,2.6,43.1,5.2
		c24.5-21.9,48.3-56,48.3-81.8c0-7.7-3.9-11.5-9.7-11.5c-18.7,0-114,55.3-130,153.2c-0.6,3.2-2.6,3.8-4.5,3.8
		c-7.1,0-21.3-7.1-21.3-34.1c0-133.2,136.5-330.9,195.1-330.9c17.4,0,32.2,13.5,32.2,30.3c0,58.6-146.1,200.9-182.8,236.9
		c0,0-5.2,18.7-7.1,32.2c29.6-51.5,92.7-103,126.8-103c13.5,0,30.9,17.4,30.9,34.1c0,24.5-15.4,52.1-36.1,74
		c34.1,0,59.9-9,85.6-34.8C1175.3,359.2,1176.6,357.9,1177.9,357.9 M1145.7,126.1c0-6.5-5.2-10.3-9.7-10.3
		c-45.7,0-132.6,137.8-159,228.6C1006.7,314.8,1145.7,176.3,1145.7,126.1 M992.5,403c0,4.5,7.7,10.3,14.2,10.3
		c9,0,21.3-5.8,33.5-15.4c-14.2-1.9-26.4-3.9-33.5-3.9C996.4,394,992.5,397.8,992.5,403"/>
	<path class="st0" d="M1309.2,357.9c1.9,0,2.6,1.9,2.6,2.6c0,1.3-4.5,5.8-6.4,7.7c0,0-63.7,69.5-113.3,69.5
		c-32.8,0-50.2-20.6-50.2-54.1c0-58,57.9-118.5,86.3-118.5c17.4,0,28.3,21.9,28.3,29.6c0,18-39.3,52.1-74.7,74
		c-1.3,3.9-1.9,15.4-1.9,20c0,20,9.7,36.7,28.3,36.7c34.1,0,97.2-65,97.2-65S1307.9,357.9,1309.2,357.9 M1242.9,295.5
		c0-5.1-1.9-7.1-5.1-7.1c-11,0-36.1,25.1-55.4,72.1C1211.3,341.2,1242.9,310.3,1242.9,295.5"/>
	<path class="st0" d="M1421.8,365.6c31.5-112.7,124.2-266.5,169.3-266.5c18.7,0,33.5,16.7,33.5,35.4c0,43.8-103.7,159.7-166.1,218.3
		c0,0-12.2,33.5-12.2,59.9c0,15.4,7.1,20.6,16.1,20.6c25.8,0,105.6-72.7,105.6-72.7c1.3-1.3,2.6-2.6,3.9-2.6c1.9,0,2.6,1.9,2.6,2.6
		c0,1.3-4.5,5.8-6.4,7.7c0,0-83.7,79.2-119.1,79.2c-17.4,0-32.2-12.9-32.2-39.3c0-6.4,2.6-25.1,4.5-33.5
		c-27,23.2-79.8,79.2-104.3,79.2c-17.4,0-32.2-12.9-32.2-39.3c0-122.3,120.4-298.7,169.3-298.7c18.7,0,33.5,16.7,33.5,35.4
		c0,43.8-95.3,142.9-157.7,201.5c0,0-15.4,39.9-15.4,66.3c0,15.4,7.1,20.6,16.1,20.6C1347.8,439.7,1396.7,387.5,1421.8,365.6
		 M1475.9,150.6c0-5.8-3.9-8.4-8.4-8.4c-36.1,0-115.9,132.6-132.6,195.7C1385.1,288.4,1475.9,189.9,1475.9,150.6 M1613,133.9
		c0-5.8-3.9-8.4-8.4-8.4c-36.1,0-124.3,149.4-141,212.5C1513.9,288.4,1613,173.1,1613,133.9"/>
	<path class="st0" d="M1720.5,401.1c1.3,0,2.6,1.3,2.6,2.6c0,1.9-3.2,4.5-7.1,7.7c-14.1,11.6-29.6,23.8-41.8,23.8
		c-20.6,0-36.1-14.2-36.1-38.7c0-12.2,1.9-23.2,1.9-23.2c-32.2,31.5-77.3,77.9-92,77.9c-14.8,0-37.4-17.4-37.4-37.3
		c0-51.5,87.6-140.4,142.9-140.4c25.1,0,49.6,22.5,49.6,36.7c0,10.3-3.2,16.7-5.1,16.7s-5.8-3.9-5.8-6.5c0-2.5,3.2-4.5,3.2-12.2
		c0-4.5-7.1-10.3-11.6-10.3c-60.5,0-144.2,90.2-144.2,134.6c0,5.1,2.6,8.4,8.4,8.4c12.2,0,58.6-44.4,89.5-75.4
		c19.3-19.3,33.5-32.2,39.3-32.2s23.2,16.7,23.2,27c0,7.7-28.3,28.9-28.3,48.9c0,8.4,4.5,13.5,12.2,13.5c8.4,0,18-7.8,28.3-16.1
		C1716,403.7,1719.2,401.1,1720.5,401.1"/>
	<path class="st0" d="M222.4,861.8c68.9,0,245.3-145.5,274.9-145.5c14.8,0,43.1,18.7,43.1,37.4c0,15.4-18,49.6-30.9,71.5
		c11.6-2.6,21.9-4.5,29-4.5c10.3,0,24.5,12.3,24.5,14.2c0,1.3-0.6,2.6-1.9,2.6c-1.9,0-8.4-1.3-18-1.3c-12.2,0-24.5,1.9-42.5,6.4
		c-53.4,94.6-171.3,220.9-231.2,220.9c-22.5,0-43.1-23.2-43.1-42.5c0-70.8,144.2-150,240.2-186.7c23.2-36.1,45.7-76,45.7-97.2
		c0-5.1-3.2-9-8.4-9c-32.8,0-205.4,142.3-284,142.3c-40.5,0-77.9-26.4-77.9-70.2c0-36,16.1-74.7,43.8-113.3
		c-59.2-9-85.6-41.2-85.6-48.9c0-1.3,0.6-2.6,1.9-2.6s1.9,0.7,3.9,2.6c6.4,6.4,27,28.3,90.2,35.4C286.1,557.9,472.2,451,605.5,451
		c42.5,0,64.4,20,64.4,45.7c0,79.8-274.9,186.7-436.5,192.5c-39.9,43.8-65,86.9-65,121.7C168.3,842.5,185.1,861.8,222.4,861.8
		 M252.6,1041.5c36.7,0,143-104.3,203.5-190.6c-93.3,33.5-221.5,107.5-221.5,171.3C234.6,1035,242.4,1041.5,252.6,1041.5
		 M247.5,673.8c137.8-8.4,406.3-100.5,406.3-170.6c0-15.4-14.8-27-36.1-27C512.8,476.1,345.4,574,247.5,673.8"/>
	<path class="st0" d="M645.3,850.2c-18.7,14.8-36.1,23.2-44.4,23.2c-15.5,0-43.1-15.4-43.1-45.1c0-12.8,2.6-24.5,7.1-35.4
		c0-1.3-0.6-2.6-0.6-4.5c0-54.7,59.2-94,93.4-94c28.9,0,50.2,18.7,50.2,45.7c0,42.5-27.7,79.2-55.4,103.6
		c38.6-2.6,72.1-29,92.1-48.9c0,0,1.9-2.6,3.8-2.6c1.9,0,3.2,1.9,3.2,2.6c0,1.3-5.2,5.8-7.1,7.7C725.1,820,694.8,848.3,645.3,850.2
		 M640.7,717.6c7.7,0,20.6,18,20.6,24.5c0,3.8-4.5,6.4-8.4,8.4c-23.8,14.2-56.7,42.5-70.8,70.8c11,14.1,30.3,22.5,53.4,23.8
		c27-23.8,53.4-65,53.4-106.9c0-21.2-12.3-34.8-37.4-34.8c-25.1,0-70.8,29.6-78.5,72.1c10.3-16.7,24.5-29.6,38-41.2
		C621.5,725.3,632.4,717.6,640.7,717.6 M576.4,844.4c0,11.6,7.1,21.3,18,21.3c9.6,0,22.5-5.8,35.4-15.4c-21.3-1.9-39.3-9-50.9-21.3
		C577,834.1,576.4,839.3,576.4,844.4"/>
	<path class="st0" d="M793.9,742.1c0,11.6-17.4,36.1-31.6,60.5c23.8-18.7,92.7-64.4,117.2-64.4c10.3,0,18,18.7,18,27
		c0,7.1-49,55.4-49,89.5c0,5.8,3.9,8.4,9,8.4c39.3,0,108.2-68.2,108.2-68.2s2.6-2.6,3.9-2.6c1.9,0,3.2,1.9,3.2,2.6
		c0,1.3-7.1,7.7-7.1,7.7s-74,73.4-108.2,73.4c-16.1,0-36.7-20-36.7-41.2c0-28.3,30.3-68.9,30.3-73.4c0-0.6-0.6-1.3-1.9-1.3
		c-7.1,0-56.7,24.5-92.1,57.3c-41.2,38-46.4,69.5-52.1,69.5c-6.4,0-17.4-16.1-17.4-29.6c0-12.9,65.7-91.4,74.7-141
		c0-5.2,3.2-5.8,6.5-5.8C775.3,710.5,793.9,725.3,793.9,742.1"/>
	<path class="st0" d="M983.2,888.2c2.6,3.2,5.1,7.1,5.1,10.3c0,5.8-14.1,24.5-16.1,26.4c2.5-0.6,15.4-5.1,23.2-5.1
		c9,0,22.6,16.1,22.6,34.1c0,17.4-25.8,36.7-47.7,36.7s-31.6-15.5-31.6-19.3c0-1.3,0.6-1.9,1.9-1.9c1.3,0,5.8,5.1,15.4,5.1
		c27,0,44.4-29,44.4-42.5c0-3.8-1.9-5.8-5.2-5.8c-15.4,0-29,16.7-34.1,16.7c-5.2,0-10.3-11-10.3-16.7c0-5.8,18.7-29,23.2-37.4
		c-22.5-1.2-45.7-16.7-45.7-45.7c0-64.4,71.5-135.9,111.4-135.9c16.1,0,32.2,11.6,32.2,29c0,7.7-5.1,20-16.7,32.2
		c-0.6,0.6-6.4,1.9-9,1.9c-0.6,0-1.3-0.6-1.3-1.3c0-0.6,0.6-1.9,1.9-3.2c9.7-9.7,16.8-21.9,16.8-29c0-3.2-1.9-6.4-6.5-6.4
		c-34.1,0-96.6,63.1-96.6,117.8c0,16.1,7.7,28.3,24.5,28.3c47.7,0,133.3-81.7,133.3-81.7s2.6-2.6,3.9-2.6s2.6,1.9,2.6,2.6
		c0,1.3-4.5,5.8-6.4,7.7C1118.4,802.6,1036.6,881.8,983.2,888.2"/>
	<path class="st0" d="M1240,869.5c-20.6,0-38.6-14.1-38.6-38.7c0-12.2,1.9-23.2,1.9-23.2c-32.2,31.5-77.2,77.9-92.1,77.9
		c-14.8,0-37.4-17.4-37.4-37.3c0-51.5,87.6-140.4,143-140.4c25.1,0,49.6,22.5,49.6,36.7c0,10.3-3.2,16.7-5.2,16.7
		c-1.9,0-5.8-3.9-5.8-6.4c0-2.6,3.2-4.5,3.2-12.2c0-4.5-7.1-10.3-11.6-10.3c-60.5,0-144.2,90.2-144.2,134.6c0,5.1,2.6,8.4,8.4,8.4
		c12.2,0,58.6-44.4,89.5-75.3c19.3-19.3,33.5-32.2,39.3-32.2s23.2,16.7,23.2,27c0,7.7-28.3,29-28.3,48.9c0,8.4,6.4,12.2,14.1,12.2
		c31.6,0,92.7-61.2,92.7-61.2c1.3-1.3,2.6-2.6,3.9-2.6c1.9,0,2.6,1.9,2.6,2.6c0,1.3-4.5,5.8-6.4,7.7
		C1341.7,802.6,1276.1,869.5,1240,869.5"/>
	<path class="st0" d="M1468.5,794.9c1.3-1.3,2.6-2.6,3.9-2.6c1.9,0,2.6,1.9,2.6,2.6c0,1.3-4.5,5.8-6.4,7.7c0,0-83.7,79.2-119.1,79.2
		c-17.4,0-32.2-12.9-32.2-39.3c0-122.3,125.6-309.1,174.5-309.1c18.7,0,33.5,16.7,33.5,35.4c0,43.8-103.7,159.7-166.1,218.3
		c0,0-12.2,33.5-12.2,59.9c0,15.4,7.1,20.6,16.1,20.6C1388.7,867.6,1468.5,794.9,1468.5,794.9 M1513.6,568.2c0-5.8-3.9-8.4-8.4-8.4
		c-36.1,0-124.3,149.4-141,212.5C1414.4,722.8,1513.6,607.5,1513.6,568.2"/>
	<path class="st0" d="M1485.2,714.4c9.7,0,26.4,13.5,26.4,30.9c0,25.8-47,94-47,119.7c0,2,1.3,3.2,3.2,3.2
		c19.3,0,118.5-85.6,118.5-160.3c0-11-3.9-16.7-3.9-21.3c0-1.9,0.6-2.6,2.6-2.6c4.5,0,20,16.1,20,34.8c0,74-124.3,161.6-143.6,161.6
		c-8.4,0-27.7-14.8-27.7-27c0-30.9,46.4-107.5,46.4-134.6C1480.1,715.7,1481.4,714.4,1485.2,714.4"/>
	<path class="st0" d="M1745.9,792.3c1.9,0,2.6,1.9,2.6,2.6c0,1.3-4.5,5.8-6.4,7.7c0,0-63.7,69.5-113.3,69.5
		c-32.8,0-50.2-20.6-50.2-54.1c0-58,57.9-118.5,86.3-118.5c17.4,0,28.3,21.9,28.3,29.6c0,18-39.3,52.1-74.7,74
		c-1.3,3.9-1.9,15.4-1.9,20c0,20,9.7,36.7,28.3,36.7c34.1,0,97.2-65,97.2-65S1744.6,792.3,1745.9,792.3 M1679.6,729.8
		c0-5.1-1.9-7.1-5.1-7.1c-11,0-36.1,25.1-55.4,72.1C1648.1,775.5,1679.6,744.6,1679.6,729.8"/>
	<path class="st0" d="M1754.3,771c-16.1,17.4-30.3,31.5-30.3,31.5c-1.3,1.3-2.6,2.6-3.2,2.6c-1.3,0-2.6-1.3-2.6-2.6
		c0-1.9,2.6-4.5,5.8-7.7c0,0,11.6-12.3,27.7-29.6c-3.2-8.4-6.4-15.5-6.4-26.4c0-24.5,32.8-50.9,44.4-50.9c9,0,23.2,14.8,23.2,23.2
		c0,9.6-41.8,26.4-41.8,50.2c0,22.5,12.9,32.2,18,53.4c20.6,3.2,30.9,9.7,30.9,12.9c0,2.6-3.9,5.8-6.4,5.8c-1.9,0-9-7.7-23.8-11.6
		c0.6,3.2,1.3,7.1,1.3,11c0,28.3-28.3,54.7-59.2,54.7c-30.9,0-58.6-30.3-58.6-47c0-4.5,3.2-8.4,9.7-11c10.3-3.8,48.9-13.5,76.6-15.4
		c0.6-2.6,0.6-5.1,0.6-7.7C1760,790.3,1757.5,780,1754.3,771 M1684.1,842.5c0,7.1,13.5,16.7,34.1,16.7c21.2,0,36.1-19.3,40.6-39.9
		c-32.9,1.9-60.5,14.1-68.3,16.7C1685.4,838,1684.1,839.9,1684.1,842.5"/>
</g>
</svg>
