<?xml version="1.0" standalone="no"?>
<!DOCTYPE svg PUBLIC "-//W3C//DTD SVG 20010904//EN"
 "http://www.w3.org/TR/2001/REC-SVG-20010904/DTD/svg10.dtd">
<svg version="1.0" xmlns="http://www.w3.org/2000/svg"
 width="1249.000000pt" height="1249.000000pt" viewBox="0 0 1249.000000 1249.000000"
 preserveAspectRatio="xMidYMid meet">
<metadata>
Created by potrace 1.14, written by Peter Selinger 2001-2017
</metadata>
<g transform="translate(0.000000,1249.000000) scale(0.100000,-0.100000)"
fill="#000000" stroke="none">
<path d="M2055 12399 c-22 -4 -51 -10 -64 -13 -245 -53 -457 -209 -579 -426
-39 -68 -88 -219 -98 -297 -8 -62 -8 -222 -1 -263 3 -14 8 -43 12 -65 16 -91
70 -221 126 -305 160 -240 440 -381 759 -380 155 0 242 16 375 70 335 134 538
435 539 800 1 110 -8 179 -33 265 -40 138 -129 287 -232 384 -103 98 -268 184
-416 217 -76 18 -326 26 -388 13z"/>
<path d="M1481 6796 c1 -1920 5 -3525 9 -3567 5 -42 11 -105 15 -140 37 -353
134 -744 257 -1029 44 -102 170 -350 215 -423 518 -843 1367 -1371 2463 -1532
14 -2 54 -7 90 -10 36 -4 72 -9 81 -10 70 -14 472 -18 1709 -18 1276 0 1628 4
1710 17 14 3 57 7 95 11 56 5 286 39 330 49 6 1 37 8 70 15 365 78 759 229
1046 399 44 26 87 52 97 57 92 55 266 181 362 264 124 106 207 186 306 296
316 351 559 792 687 1245 28 99 56 205 61 235 14 72 18 92 26 130 5 22 12 63
16 90 3 28 8 57 9 65 2 9 6 43 10 75 4 33 8 71 10 85 16 107 19 433 20 1945 0
1539 -3 1870 -20 2010 -14 120 -28 222 -31 240 -2 10 -6 37 -10 60 -3 22 -15
83 -26 135 -10 52 -22 106 -24 120 -3 14 -9 41 -14 60 -5 19 -10 38 -10 42 0
4 -7 26 -15 48 -8 22 -12 40 -10 40 7 0 -93 286 -142 405 -126 308 -310 614
-521 869 -88 105 -278 297 -372 377 -36 29 -67 57 -70 60 -3 3 -39 30 -80 60
-41 29 -81 59 -88 66 -30 29 -287 182 -407 242 -122 62 -149 75 -250 117 -169
71 -453 157 -635 193 -30 6 -66 14 -80 17 -41 8 -201 33 -260 39 -30 3 -62 8
-70 10 -86 23 -718 23 -860 1 -14 -3 -53 -7 -88 -11 -59 -5 -306 -47 -362 -60
-14 -3 -34 -8 -45 -10 -50 -8 -261 -68 -365 -103 -617 -209 -1111 -542 -1542
-1039 -91 -106 -248 -332 -337 -487 -147 -255 -289 -609 -356 -891 -10 -38
-18 -80 -20 -92 -2 -11 -6 -29 -9 -40 -3 -10 -8 -34 -11 -53 -4 -19 -12 -71
-20 -115 -7 -44 -16 -105 -20 -135 -3 -30 -8 -66 -10 -80 -24 -165 -24 -662 0
-845 2 -16 7 -56 10 -88 4 -32 8 -68 11 -80 2 -12 7 -40 10 -62 2 -22 11 -71
19 -110 8 -38 16 -82 19 -97 3 -15 7 -31 10 -36 3 -5 8 -24 11 -43 3 -19 20
-81 36 -139 116 -402 291 -764 538 -1105 36 -49 68 -92 71 -95 3 -3 25 -30 50
-60 344 -421 832 -779 1357 -994 200 -82 510 -180 641 -202 15 -3 41 -9 57
-14 17 -4 46 -11 65 -14 19 -3 46 -8 60 -11 13 -3 40 -7 60 -10 20 -3 45 -7
55 -9 11 -2 45 -7 75 -11 30 -4 62 -9 70 -10 8 -1 53 -6 100 -10 47 -3 101 -9
120 -11 19 -2 234 -6 477 -9 l441 -4 11 27 c5 15 49 151 96 302 47 151 99 316
115 365 15 50 56 178 90 285 34 107 77 243 96 302 19 59 34 108 34 111 0 2
-210 4 -467 4 -417 0 -715 7 -769 17 -11 2 -46 7 -79 10 -33 4 -67 9 -75 11
-8 2 -37 7 -64 10 -27 3 -51 7 -55 9 -3 2 -24 7 -45 10 -252 40 -599 182 -852
348 -445 292 -772 782 -881 1318 -3 14 -6 30 -7 35 -11 46 -25 140 -41 290 -7
59 -7 359 -1 395 2 14 7 57 11 95 3 39 8 79 11 90 2 11 6 31 8 45 2 14 7 36
10 50 3 14 8 36 10 50 2 14 16 66 30 116 304 1077 1356 1679 2532 1450 170
-33 377 -107 534 -189 481 -253 813 -673 985 -1248 14 -46 27 -93 30 -104 19
-90 46 -238 51 -275 3 -25 7 -56 10 -70 16 -98 19 -416 19 -1880 0 -1477 -3
-1769 -19 -1860 -3 -14 -7 -42 -10 -62 -19 -128 -83 -366 -123 -458 -172 -396
-389 -656 -728 -873 -115 -73 -363 -186 -465 -212 -8 -2 -58 -15 -110 -29 -52
-14 -122 -30 -155 -36 -33 -5 -70 -12 -82 -14 -12 -3 -50 -7 -85 -10 -35 -4
-81 -9 -103 -12 -49 -7 -2873 -7 -2970 0 -107 8 -240 25 -319 42 -39 9 -81 18
-94 20 -58 11 -256 76 -332 109 -698 298 -1099 896 -1155 1720 -2 28 -4 1594
-4 3481 l-1 3431 -735 0 -735 0 1 -3491z"/>
</g>
</svg>
